<?xml version="1.0" encoding="UTF-8"?>
<ffprobe>
    <streams>
        <stream index="0" codec_name="mpeg4" codec_long_name="MPEG-4 part 2" profile="Simple Profile" codec_type="video" codec_time_base="1/25" codec_tag_string="mp4v" codec_tag="0x7634706d" width="720" height="404" has_b_frames="0" sample_aspect_ratio="254:255" display_aspect_ratio="3048:1717" pix_fmt="yuv420p" level="1" chroma_location="left" refs="1" quarter_sample="0" divx_packed="0" r_frame_rate="25/1" avg_frame_rate="25/1" time_base="1/12800" start_pts="-114177" start_time="-8.920078" duration_ts="178688" duration="13.960000" bit_rate="3370412" nb_frames="349">
            <disposition default="1" dub="0" original="0" comment="0" lyrics="0" karaoke="0" forced="0" hearing_impaired="0" visual_impaired="0" clean_effects="0" attached_pic="0"/>
            <tag key="language" value="deu"/>
            <tag key="handler_name" value="VideoHandler"/>
        </stream>
        <stream index="1" codec_name="aac" codec_long_name="AAC (Advanced Audio Coding)" profile="LC" codec_type="audio" codec_time_base="1/48000" codec_tag_string="mp4a" codec_tag="0x6134706d" sample_fmt="fltp" sample_rate="48000" channels="2" channel_layout="stereo" bits_per_sample="0" r_frame_rate="0/0" avg_frame_rate="0/0" time_base="1/48000" start_pts="-428545" start_time="-8.928021" duration_ts="668672" duration="13.930667" bit_rate="127662" nb_frames="653">
            <disposition default="1" dub="0" original="0" comment="0" lyrics="0" karaoke="0" forced="0" hearing_impaired="0" visual_impaired="0" clean_effects="0" attached_pic="0"/>
            <tag key="language" value="deu"/>
            <tag key="handler_name" value="SoundHandler"/>
        </stream>
        <stream index="2" codec_name="aac" codec_long_name="AAC (Advanced Audio Coding)" profile="LC" codec_type="audio" codec_time_base="1/48000" codec_tag_string="mp4a" codec_tag="0x6134706d" sample_fmt="fltp" sample_rate="48000" channels="2" channel_layout="stereo" bits_per_sample="0" r_frame_rate="0/0" avg_frame_rate="0/0" time_base="1/48000" start_pts="-428545" start_time="-8.928021" duration_ts="668672" duration="13.930667" bit_rate="128706" nb_frames="653">
            <disposition default="0" dub="0" original="0" comment="0" lyrics="0" karaoke="0" forced="0" hearing_impaired="0" visual_impaired="0" clean_effects="0" attached_pic="0"/>
            <tag key="language" value="eng"/>
            <tag key="handler_name" value="SoundHandler"/>
        </stream>
        <stream index="3" codec_name="mov_text" codec_long_name="3GPP Timed Text subtitle" codec_type="subtitle" codec_time_base="1/1000" codec_tag_string="tx3g" codec_tag="0x67337874" r_frame_rate="0/0" avg_frame_rate="0/0" time_base="1/1000" start_pts="-60000" start_time="-60.000000" duration_ts="427680" duration="427.680000" nb_frames="2">
            <disposition default="1" dub="0" original="0" comment="0" lyrics="0" karaoke="0" forced="0" hearing_impaired="0" visual_impaired="0" clean_effects="0" attached_pic="0"/>
            <tag key="language" value="eng"/>
            <tag key="handler_name" value="SubtitleHandler"/>
        </stream>
        <stream index="4" codec_name="mov_text" codec_long_name="3GPP Timed Text subtitle" codec_type="subtitle" codec_time_base="1/1000" codec_tag_string="text" codec_tag="0x74786574" r_frame_rate="0/0" avg_frame_rate="0/0" time_base="1/1000" start_pts="-8928" start_time="-8.928000" duration_ts="427680" duration="427.680000" bit_rate="38" nb_frames="1">
            <disposition default="0" dub="0" original="0" comment="0" lyrics="0" karaoke="0" forced="0" hearing_impaired="0" visual_impaired="0" clean_effects="0" attached_pic="0"/>
            <tag key="language" value="eng"/>
            <tag key="handler_name" value="SubtitleHandler"/>
        </stream>
    </streams>

    <format filename="test2.mp4" nb_streams="5" nb_programs="0" format_name="mov,mp4,m4a,3gp,3g2,mj2" format_long_name="QuickTime / MOV" start_time="-8.928021" duration="427.680000" size="6344020" bit_rate="118668" probe_score="100">
        <tag key="major_brand" value="isom"/>
        <tag key="minor_version" value="512"/>
        <tag key="compatible_brands" value="isomiso2mp41"/>
        <tag key="encoder" value="Lavf56.25.101"/>
    </format>
</ffprobe>
